<svg width="100" height="48" viewBox="0 0 100 48" fill="none" xmlns="http://www.w3.org/2000/svg">
<path id="Vector 15" d="M1.12402 40.2777C6.37885 40.2777 6.88738 47.1194 12.4812 47.1194C18.0751 47.1194 16.719 27.6745 21.9738 27.6745C27.2286 27.6745 24.347 11.2903 31.6359 11.2903C38.9249 11.2903 35.5347 27.6745 42.1456 27.6745C48.7565 27.6745 47.7394 8.54852 51.9772 8.54852C56.2149 8.54852 55.0284 19.9325 60.1137 19.9325C65.199 19.9325 62.8259 1.15576 68.2502 1.15576C73.6745 1.15576 73.166 9.35208 78.0818 9.35208C82.9976 9.35208 83.5061 18.8522 90.2866 18.8522C97.067 18.8522 92.8292 29.4411 99.2706 29.4411" stroke="#6C5FBC" stroke-width="0.943586" stroke-linecap="round" stroke-linejoin="round"/>
</svg>
